<svg xmlns="http://www.w3.org/2000/svg" width="189.789" height="27.868" viewBox="0 0 189.789 27.868">
    <path fill="#000000" d="M176.528 83.716a8.723 8.723 0 0 0-9.081 9.161c0 5.491 4.036 9.161 9.848 9.161a12.146 12.146 0 0 0 4.652-.865l2.477-4.146-.328-.192a14.073 14.073 0 0 1-6.407 1.694c-3 0-5.6-1.517-5.888-4.141h13.274v-1.2c0-6.067-3.678-9.485-8.536-9.485m-4.739 7.415a4.318 4.318 0 0 1 4.5-4.146c2.724 0 4.394 1.6 4.425 4.146zm95.177-7.4a8.718 8.718 0 0 0-9.081 9.161c0 5.491 4.036 9.161 9.848 9.161a12.086 12.086 0 0 0 4.642-.865l2.487-4.146-.328-.177a14.1 14.1 0 0 1-6.412 1.694c-3 0-5.59-1.517-5.883-4.141h13.264c.575-6.836-3.093-10.688-8.536-10.688m-4.737 7.417a4.314 4.314 0 0 1 4.49-4.146c2.724 0 4.394 1.6 4.43 4.146zm-56.1-7.417a8.723 8.723 0 0 0-9.081 9.161c0 5.491 4.036 9.161 9.848 9.161a12.126 12.126 0 0 0 4.652-.865l2.477-4.146-.333-.177a14.038 14.038 0 0 1-6.4 1.694c-3 0-5.6-1.517-5.888-4.141h13.279c.575-6.836-3.1-10.688-8.546-10.688m-4.732 7.417a4.318 4.318 0 0 1 4.5-4.146c2.719 0 4.394 1.6 4.425 4.146zM116.2 88.039v-.071a5.717 5.717 0 0 0 4.46-5.632c0-4.692-3.991-6.471-7.865-6.471H99.68v.384l1.32 1.122c1.584 1.294 1.786 1.542 1.786 2.71v21.528h9.258c4.853 0 9.722-1.744 9.722-7.346a6.128 6.128 0 0 0-5.55-6.219m-8.864-8.256h3.769c2.553 0 3.34.354 4.112 1.092a2.931 2.931 0 0 1 .858 2.22 2.885 2.885 0 0 1-.883 2.149c-.757.728-1.8 1.082-3.688 1.082h-4.167zm4.208 17.888h-4.208v-7.413h4.389c3.7 0 5.439.945 5.439 3.635 0 3.382-3.269 3.782-5.62 3.782m18.83-19.45a2.8 2.8 0 1 1-2.8-2.629 2.681 2.681 0 0 1 2.825 2.619m-7.336 5.936h6.695V101.6h-4.359V87.872c0-1.441-.081-1.673-1.645-2.882l-.691-.551zm34.65-9.06l1.367.88c1.241.794 1.428 1.173 1.428 2.28v8.089h-.106a7.158 7.158 0 0 0-5.913-2.654c-4.969 0-8.42 4-8.42 9.161s3.234 9.161 8.6 9.161a6.746 6.746 0 0 0 5.989-3.034h.071l.454 2.619h3.678V74.782h-7.147zm-2.174 23a5.234 5.234 0 1 1 5.121-5.233 5.059 5.059 0 0 1-5.121 5.233m92.473-23l.605.4c2.1 1.33 2.361 1.714 2.361 3.984v6.89h-.111a7.166 7.166 0 0 0-5.913-2.654c-4.969 0-8.415 4-8.415 9.161s3.229 9.161 8.577 9.161a6.734 6.734 0 0 0 5.989-3.034h.076l.459 2.619h3.678V74.782h-7.315zm-2.018 23a5.234 5.234 0 1 1 5.116-5.233 5.059 5.059 0 0 1-5.116 5.237m43.449-14.156v4.216a8.7 8.7 0 0 0-2.1-.329 4.391 4.391 0 0 0-4.682 4.4v9.343h-4.349V88.706c0-2.194-.116-2.528-1.887-3.645l-1.095-.723v-.192h7.341v2.771h.076a5.549 5.549 0 0 1 5.151-3.2 5.715 5.715 0 0 1 1.559.253m-96.673.11h4.036v3.72H192.8v13.8h-4.369V89.3c0-1.461-.293-1.785-2.018-3.155l-2.22-1.81v-.255h4.243V80.9c0-4.737 3.083-7.746 9.752-6.411l1.009 3.7-.212.172c-3.486-1.375-6.185-.506-6.185 2.528zm41.239 6.5v11.02h-4.354v-9.709c0-1.921-.5-4.247-3.532-4.247-2.866 0-3.991 2.108-3.991 4.434v9.522h-4.349V88.7c0-2.194-.116-2.528-1.887-3.645l-1.059-.723v-.192h7.114v2.66h.071a6.742 6.742 0 0 1 5.55-3.094c4.112 0 6.483 2.821 6.483 6.866m-89.345 7.523l.141.091s-2.164 3.468-2.159 3.468c-3.532.966-7.537-.061-7.537-5.764v-7.078c0-1.127-.182-1.067-2.623-3.084l-1.579-1.37v-.207h4.228L136.8 79.1h2.76v5.056h4.657v3.7h-4.657v7.912c0 3.15 2.154 3.226 5.186 2.326" transform="translate(-99.68 -74.171)"/>
</svg>
